<?xml version="1.0" standalone="no"?>
<!DOCTYPE svg PUBLIC "-//W3C//DTD SVG 20010904//EN"
 "http://www.w3.org/TR/2001/REC-SVG-20010904/DTD/svg10.dtd">
<svg version="1.0" xmlns="http://www.w3.org/2000/svg"
 width="772.000000pt" height="772.000000pt" viewBox="0 0 772.000000 772.000000"
 preserveAspectRatio="xMidYMid meet">
<metadata>
Created by potrace 1.14, written by Peter Selinger 2001-2017
</metadata>
<g transform="translate(0.000000,772.000000) scale(0.100000,-0.100000)"
fill="#000000" stroke="none">
<path d="M0 4590 c0 -1722 3 -3130 6 -3130 8 0 152 81 286 161 55 32 102 59
104 59 3 0 46 24 97 54 160 94 318 175 351 181 28 5 34 1 60 -37 l29 -42 21
26 c45 54 72 56 214 12 47 -14 126 -30 174 -34 48 -5 92 -11 98 -15 5 -3 10
-17 10 -31 0 -19 -5 -24 -18 -22 -16 2 -82 -58 -82 -75 0 -6 -80 -145 -142
-244 -21 -34 -38 -65 -38 -68 0 -3 -21 -42 -47 -86 l-46 -80 -26 25 c-30 28
-71 46 -107 46 -13 0 -24 4 -24 8 0 8 51 111 70 142 67 107 170 284 170 291 0
22 -20 5 -39 -33 -12 -24 -25 -50 -31 -58 -27 -42 -132 -226 -154 -269 -34
-65 -51 -81 -91 -81 -53 0 -201 -42 -265 -75 -36 -18 -40 -19 -40 -2 0 8 12
24 26 38 14 13 32 35 39 49 7 14 22 34 32 45 42 45 251 331 287 393 4 6 3 12
-3 12 -6 0 -17 -13 -26 -29 -21 -42 -43 -61 -70 -61 -13 0 -104 -39 -202 -88
-291 -143 -456 -202 -565 -202 l-58 0 0 -685 0 -685 2188 5 c1203 2 2507 4
2898 4 390 0 712 2 715 5 4 4 0 85 -17 369 -6 108 -5 127 7 122 22 -8 80 -122
84 -163 2 -21 11 -42 22 -49 10 -7 34 -26 53 -42 19 -17 37 -30 40 -30 3 0 32
-16 64 -35 33 -20 68 -36 79 -36 10 0 26 -4 36 -10 10 -5 68 -10 128 -11 88
-2 115 1 134 14 13 9 38 20 56 23 18 3 36 11 40 17 4 7 -2 8 -18 3 -65 -20
-113 -25 -219 -21 -63 1 -126 8 -140 14 -24 10 -23 11 7 5 17 -3 71 -6 120 -6
99 -2 197 21 305 70 90 41 129 74 186 157 26 39 50 71 54 73 5 2 8 10 8 18 0
8 5 14 10 14 12 0 13 -13 2 -24 -4 -4 -7 -83 -8 -174 -1 -92 -4 -198 -8 -236
l-8 -69 41 6 c27 3 52 15 70 34 46 44 93 78 133 97 21 10 43 31 52 49 21 46
83 115 127 143 41 25 51 57 23 68 -15 6 -16 18 -11 89 7 95 30 165 67 201 14
14 88 80 165 147 183 160 235 208 235 219 0 16 -11 12 -35 -13 -12 -12 -48
-44 -80 -72 -32 -27 -72 -63 -89 -78 -17 -16 -47 -41 -66 -55 -40 -31 -145
-119 -172 -145 -21 -20 -48 -91 -48 -128 0 -15 -7 -32 -16 -40 -14 -11 -15 -8
-12 33 2 25 12 57 21 71 19 30 22 47 7 47 -5 0 -10 -7 -10 -15 0 -9 -9 -15
-23 -15 -13 0 -32 -9 -42 -20 -25 -27 -38 -25 -31 5 6 25 6 25 -12 8 -12 -11
-15 -22 -10 -29 5 -7 2 -16 -7 -24 -13 -11 -19 -10 -35 8 -11 12 -20 26 -20
32 0 10 -18 14 -57 10 -15 -1 -23 4 -23 14 0 23 -11 20 -35 -10 -20 -25 -22
-25 -38 -10 -16 16 -17 16 -17 -1 0 -11 6 -25 13 -32 7 -9 7 -11 1 -8 -14 8
-24 -14 -24 -50 0 -13 -5 -23 -11 -21 -7 2 -10 73 -10 218 1 160 -2 210 -10
197 -6 -11 -14 -110 -18 -237 l-7 -218 -29 -38 c-41 -54 -143 -154 -156 -154
-8 0 -10 27 -8 83 1 45 2 147 1 226 -2 161 6 150 -87 113 -89 -36 -131 -44
-228 -46 -158 -2 -143 34 23 53 l55 7 -41 7 c-57 9 -145 -8 -166 -33 -28 -34
-70 -16 -47 21 12 19 11 32 -1 24 -7 -4 -8 3 -4 20 11 44 -46 63 -79 27 -24
-26 -21 -32 13 -32 19 0 30 -5 30 -14 0 -8 3 -21 6 -29 20 -52 -183 62 -219
123 -10 16 -22 28 -27 25 -5 -3 -9 -70 -8 -148 1 -193 1 -194 -14 -179 -7 7
-14 29 -15 50 -6 91 -13 220 -13 253 0 19 -7 44 -15 55 -13 17 -15 1 -11 -161
3 -99 8 -188 11 -198 5 -12 2 -17 -9 -17 -9 0 -16 8 -17 18 0 9 -3 49 -5 87
-3 39 -6 81 -7 95 -2 20 -7 25 -31 25 -16 1 -39 -8 -53 -18 -36 -29 -59 -13
-54 38 0 6 -8 20 -17 33 l-18 23 -28 -22 c-20 -16 -48 -24 -104 -29 -42 -4
-62 -8 -44 -9 49 -2 40 -30 -13 -35 -15 -2 -22 1 -19 9 3 6 -2 18 -11 25 -14
11 -20 11 -37 1 -16 -10 -22 -10 -28 -1 -4 7 -19 13 -34 13 -14 1 -26 5 -26
10 0 4 -4 7 -10 7 -5 0 -10 -7 -10 -16 0 -11 -5 -14 -16 -10 -8 3 -25 1 -37
-6 -12 -6 -36 -11 -53 -9 -30 2 -37 -2 -73 -44 -9 -11 -21 -15 -38 -10 -15 3
-22 2 -18 -4 3 -6 -8 -10 -30 -9 -26 1 -35 6 -35 19 0 21 44 33 71 19 22 -12
49 1 49 25 0 22 45 38 69 25 30 -15 60 -5 54 19 -6 25 28 37 56 19 18 -11 24
-8 56 25 32 33 39 36 58 25 27 -14 23 -15 58 18 21 20 40 28 69 29 29 1 48 8
69 29 24 23 35 27 60 21 25 -5 35 -2 55 20 26 27 53 33 93 20 19 -6 25 -2 36
25 15 35 11 83 -7 77 -6 -2 -10 -21 -10 -41 2 -45 -20 -44 -24 2 -2 18 -7 32
-13 32 -5 0 -9 -4 -9 -8 0 -11 -45 -32 -68 -32 -9 0 -27 16 -40 36 -14 22 -29
34 -40 32 -23 -4 -27 -32 -7 -51 25 -26 18 -44 -22 -54 -30 -7 -37 -13 -34
-29 7 -37 6 -47 -6 -51 -8 -3 -13 5 -13 22 0 14 -5 36 -11 47 -9 18 -9 20 4
15 13 -5 14 -1 5 24 -12 35 -22 42 -48 34 -26 -8 -27 -51 0 -65 29 -15 14 -38
-31 -45 -32 -6 -37 -10 -31 -23 5 -10 6 -30 2 -47 -6 -28 -7 -27 -14 17 -5 27
-10 48 -12 48 -2 0 -19 -11 -39 -24 -43 -30 -56 -26 -78 20 -15 29 -21 34 -40
28 -29 -9 -29 -8 -21 -38 6 -25 10 -28 44 -30 18 -1 40 -44 33 -63 -5 -12 -7
-12 -14 -1 -5 7 -9 21 -9 31 0 21 -1 21 -35 3 -35 -19 -50 -12 -70 30 -16 35
-22 38 -49 28 -23 -9 -20 -40 7 -59 22 -16 22 -16 3 -30 -32 -24 -63 -18 -83
15 -19 32 -47 40 -57 15 -6 -18 2 -45 15 -45 20 0 7 -31 -17 -40 -39 -15 -49
-12 -61 20 -15 41 -53 42 -53 2 0 -15 5 -33 11 -39 8 -8 4 -15 -12 -27 -31
-21 -59 -21 -59 2 0 23 -19 42 -42 42 -13 0 -18 -8 -18 -30 0 -16 5 -30 10
-30 22 0 8 -30 -17 -36 -22 -6 -31 -2 -54 26 -18 21 -33 31 -43 27 -22 -9 -20
-43 4 -60 20 -14 20 -15 -9 -27 -36 -14 -51 -7 -51 25 0 26 -26 40 -54 29 -20
-8 -21 -50 -1 -61 18 -10 8 -25 -28 -41 -40 -17 -44 -16 -51 23 -8 40 -18 49
-46 40 -25 -8 -27 -51 -4 -77 16 -16 15 -18 0 -24 -10 -4 -21 -3 -26 2 -11 11
-167 318 -193 379 -9 22 -21 47 -27 55 -5 8 -20 40 -33 70 -14 30 -39 85 -56
123 -17 37 -32 72 -34 79 -1 8 25 13 88 15 122 4 347 31 359 43 6 6 18 10 27
10 21 0 74 65 65 79 -8 12 97 216 135 261 73 90 161 231 156 251 -4 14 5 32
29 58 19 21 34 44 34 51 0 7 -9 1 -21 -14 -11 -14 -58 -56 -104 -91 -86 -68
-99 -81 -175 -185 -65 -88 -95 -108 -182 -120 -40 -5 -215 -14 -388 -20 -220
-8 -333 -15 -375 -26 -33 -9 -117 -47 -186 -85 -112 -61 -190 -92 -281 -113
-16 -4 -108 -13 -205 -21 -303 -25 -374 -34 -488 -59 -61 -13 -142 -29 -180
-35 -123 -18 -258 -41 -325 -55 -61 -13 -125 -21 -362 -46 -128 -13 -304 -12
-348 3 -31 11 -35 17 -38 50 -2 24 8 73 28 130 31 94 135 313 169 356 22 29
28 29 280 5 91 -8 276 -18 411 -21 209 -4 273 -2 435 16 229 26 260 32 260 51
0 8 14 24 30 34 53 34 428 285 473 316 54 38 72 38 72 3 0 -16 7 -37 15 -47
20 -27 19 -43 -5 -49 -11 -3 -18 -2 -15 3 3 4 -7 11 -23 15 -25 6 -26 7 -8 20
10 8 16 18 15 23 -5 12 -89 -26 -89 -40 0 -6 7 -8 15 -4 8 3 15 0 15 -5 0 -7
-9 -9 -22 -6 -23 6 -138 -55 -138 -74 0 -5 -7 -9 -15 -9 -15 0 -107 -58 -177
-112 -20 -16 -57 -36 -82 -44 -53 -18 -63 -40 -13 -30 17 4 56 11 85 16 29 5
68 14 85 19 18 5 73 17 122 26 147 26 161 32 215 87 27 28 50 54 50 59 0 11
85 133 127 183 29 34 31 42 19 55 -15 17 -58 109 -132 281 -10 24 -38 83 -60
130 -31 63 -39 88 -30 96 10 10 93 43 286 115 192 72 489 182 530 196 25 9 79
29 120 45 41 15 125 46 185 69 61 23 139 52 175 65 35 14 67 28 70 32 3 5 32
16 65 26 118 35 140 44 137 55 -1 6 12 11 32 11 39 0 119 33 108 45 -4 4 3 5
15 1 13 -4 47 3 87 19 36 14 96 37 134 51 37 14 71 32 75 40 5 8 18 11 35 8
18 -3 67 11 147 41 66 26 143 53 170 62 28 8 61 21 74 30 34 22 40 7 29 -67
-5 -36 -7 -102 -4 -148 7 -93 1 -107 -92 -240 -44 -64 -51 -82 -102 -297 -12
-49 -28 -105 -36 -123 -14 -34 -34 -35 -34 -3 0 11 -9 29 -21 42 l-20 24 6
-37 c6 -38 -2 -47 -21 -28 -11 11 -44 3 -44 -10 0 -4 23 -13 50 -20 43 -10 50
-15 50 -37 0 -13 -5 -33 -11 -44 -7 -14 -7 -41 2 -94 7 -41 15 -75 18 -75 4 0
6 37 6 82 0 66 6 97 27 151 15 37 37 113 49 169 28 132 49 177 104 224 175
150 183 164 170 284 -14 118 -11 252 6 300 55 154 78 329 86 673 3 136 9 247
14 247 4 0 13 -26 20 -57 7 -32 16 -62 20 -67 14 -16 82 166 105 282 10 48 28
33 35 -29 7 -66 17 -99 30 -99 18 0 100 203 137 340 11 41 28 119 38 173 9 53
20 97 23 97 9 0 73 -191 74 -220 1 -30 -29 -276 -43 -345 -19 -100 -63 -372
-71 -440 -9 -84 -35 -237 -49 -284 -5 -19 -7 -38 -4 -42 3 -5 0 -25 -5 -46
-13 -45 -8 -52 19 -28 19 18 115 55 204 80 27 8 76 25 110 38 95 38 221 77
250 77 31 0 34 15 6 30 -22 12 -90 3 -90 -11 0 -4 -17 -11 -37 -15 -21 -4 -70
-22 -109 -40 -38 -19 -86 -37 -105 -40 -19 -4 -46 -15 -61 -25 -14 -11 -33
-19 -42 -19 -9 0 -38 -8 -65 -19 -28 -10 -52 -16 -55 -14 -5 6 -2 32 20 138 8
39 16 96 19 128 2 32 8 64 13 70 5 7 15 59 22 117 6 58 20 148 30 200 21 105
22 107 128 170 31 19 82 53 113 75 68 48 61 43 234 159 123 81 263 176 471
319 33 23 124 84 202 136 78 52 142 100 142 108 0 11 -10 8 -37 -9 -21 -13
-67 -41 -103 -63 -35 -22 -80 -55 -98 -72 -19 -18 -37 -33 -40 -33 -3 0 -22
-11 -41 -23 -20 -13 -67 -44 -106 -69 -158 -103 -501 -328 -662 -436 -95 -64
-175 -113 -179 -110 -3 4 -1 15 4 25 5 10 15 69 22 131 7 61 17 112 21 112 5
0 9 -4 9 -10 0 -12 27 -13 34 -2 15 25 56 433 56 560 0 66 4 63 60 -43 23 -44
52 -93 65 -110 12 -16 25 -40 29 -53 12 -38 42 -24 38 18 -1 19 -4 117 -6 218
l-4 182 26 15 c15 7 39 24 54 37 14 13 35 29 45 36 15 10 14 11 -7 1 -14 -7
-44 -25 -67 -40 -23 -16 -45 -29 -50 -29 -4 0 -9 36 -10 79 -2 43 -7 90 -13
103 -7 16 -9 -21 -5 -127 4 -145 4 -149 -12 -115 -13 28 -17 31 -21 16 -6 -29
8 -106 20 -106 7 0 9 -27 6 -84 -3 -49 -2 -88 4 -94 5 -5 8 -20 6 -33 -4 -23
-5 -23 -16 6 -7 17 -17 38 -23 48 -6 11 -8 22 -5 25 3 3 6 -1 7 -9 0 -8 5 0
10 16 7 23 5 33 -6 41 -9 7 -21 38 -28 70 -12 61 -56 127 -58 88 0 -11 -3 -13
-6 -6 -2 6 -11 12 -19 12 -8 0 -14 8 -14 18 0 22 -22 72 -32 72 -5 0 -8 -9 -8
-20 0 -11 -4 -20 -10 -20 -5 0 -10 18 -10 40 0 29 4 40 15 40 13 0 14 4 5 20
-6 11 -15 18 -20 15 -5 -3 -11 -1 -15 5 -3 5 -14 10 -24 10 -30 0 -52 35 -58
94 -4 37 -12 61 -25 73 -11 10 -22 17 -24 16 -12 -8 -15 -1 -4 12 7 8 8 15 2
15 -15 0 -38 71 -47 146 -1 13 -11 32 -23 41 -16 15 -22 35 -27 105 l-7 87 46
46 c25 25 46 49 46 55 0 5 5 10 10 10 6 0 10 7 10 15 0 27 44 115 58 115 19 0
19 69 0 81 -16 10 14 24 46 20 20 -2 27 1 23 11 -2 7 2 20 9 29 12 14 10 21
-16 54 -16 20 -27 42 -23 48 4 6 11 3 19 -8 7 -9 26 -31 41 -49 15 -17 53 -66
83 -108 30 -43 58 -78 63 -78 4 0 7 13 7 28 0 34 9 45 25 32 9 -7 16 -6 25 5
10 13 9 15 -11 15 l-22 0 23 25 c13 14 29 25 36 25 6 0 22 8 35 19 20 16 21
21 10 35 -11 13 -9 20 9 46 27 37 40 38 41 3 2 -26 2 -27 6 -4 4 21 53 81 66
81 3 0 19 14 37 30 18 17 36 30 41 30 5 0 23 14 40 31 16 16 39 32 50 34 27 5
49 24 49 40 0 12 19 23 98 56 17 8 32 17 32 21 0 5 11 8 25 8 14 0 34 9 45 20
11 11 32 22 47 25 16 4 36 10 45 16 10 5 30 10 45 10 25 2 25 2 5 6 -37 7 -19
28 29 33 24 3 54 11 66 18 12 7 35 9 52 6 37 -8 43 12 9 26 -18 8 -15 8 15 4
l37 -6 0 161 0 161 -3860 0 -3860 0 0 -3130z m4147 3088 c-3 -8 -6 -5 -6 6 -1
11 2 17 5 13 3 -3 4 -12 1 -19z m-1030 -54 c-3 -3 -12 -4 -19 -1 -8 3 -5 6 6
6 11 1 17 -2 13 -5z m-489 -11 c-10 -2 -28 -2 -40 0 -13 2 -5 4 17 4 22 1 32
-1 23 -4z m587 -3 c3 -5 -1 -10 -9 -10 -8 0 -18 5 -21 10 -3 6 1 10 9 10 8 0
18 -4 21 -10z m3224 -614 c-3 -3 -11 5 -18 17 -13 21 -12 21 5 5 10 -10 16
-20 13 -22z m-39 -386 c0 -5 -4 -10 -10 -10 -5 0 -10 5 -10 10 0 6 5 10 10 10
6 0 10 -4 10 -10z m-3320 -40 c-20 -13 -33 -13 -25 0 3 6 14 10 23 10 15 0 15
-2 2 -10z m-36 -35 c-4 -8 -12 -15 -20 -15 -20 0 -17 18 4 23 9 3 18 5 19 6 1
0 0 -6 -3 -14z m-583 -198 c-8 -8 -11 -5 -11 9 0 27 14 41 18 19 2 -9 -1 -22
-7 -28z m3877 -372 c35 -70 45 -265 13 -265 -12 0 -31 47 -31 77 0 14 -4 42
-9 62 -25 99 -32 142 -26 161 10 31 26 20 53 -35z m-3948 -130 c0 -14 -4 -25
-10 -25 -11 0 -14 33 -3 43 11 11 13 8 13 -18z m3703 -124 c10 -41 5 -131 -8
-133 -10 -2 -36 151 -28 165 9 16 27 0 36 -32z m-228 -105 c9 -82 3 -297 -9
-315 -8 -12 -11 -11 -23 4 -10 14 -13 61 -13 181 0 169 3 194 25 194 9 0 16
-21 20 -64z m717 21 c-5 -20 -6 -20 -13 -1 -11 29 -10 34 5 28 8 -3 12 -13 8
-27z m56 -18 c4 -24 3 -24 -12 -4 -19 24 -20 38 -3 33 6 -3 13 -15 15 -29z
m-1496 -67 c-8 -38 -28 -40 -24 -2 4 40 12 54 22 44 5 -5 6 -24 2 -42z m281
-78 c-2 -108 -12 -155 -33 -162 -11 -4 -12 18 -6 123 7 133 10 149 29 142 8
-3 11 -35 10 -103z m1265 69 c6 -15 12 -32 12 -37 -1 -15 -40 36 -40 52 0 21
14 13 28 -15z m-131 -25 c-3 -8 -6 -5 -6 6 -1 11 2 17 5 13 3 -3 4 -12 1 -19z
m-3957 -281 c0 -5 -4 -5 -10 -2 -5 3 -10 14 -10 23 0 15 2 15 10 2 5 -8 10
-19 10 -23z m24 -62 c5 -20 4 -27 -3 -20 -5 6 -13 24 -17 40 -4 20 -3 27 3 20
6 -5 14 -23 17 -40z m1373 -237 c-3 -7 -5 -2 -5 12 0 14 2 19 5 13 2 -7 2 -19
0 -25z m400 -193 c43 -17 49 -35 12 -35 -11 0 -22 6 -25 14 -3 8 -16 17 -30
20 -13 4 -24 11 -24 17 0 6 6 9 13 6 6 -3 31 -13 54 -22z m-1591 -98 c24 -85
25 -92 9 -57 -10 19 -21 46 -25 60 -4 14 -11 34 -15 45 -7 16 -6 18 6 7 7 -6
18 -31 25 -55z m744 -37 c0 -16 -4 -31 -9 -34 -5 -4 -7 3 -4 14 3 11 0 26 -6
33 -6 8 -8 17 -5 20 12 12 24 -4 24 -33z m-2320 4 c0 -2 -7 -4 -15 -4 -8 0
-15 4 -15 10 0 5 7 7 15 4 8 -4 15 -8 15 -10z m20 -29 c11 -13 10 -14 -4 -9
-9 3 -16 10 -16 15 0 13 6 11 20 -6z m173 -189 c96 -129 164 -270 188 -391 30
-153 49 -353 48 -510 l-2 -150 -13 175 c-8 96 -20 196 -29 222 -18 57 -21 101
-4 78 9 -12 9 -11 4 5 -4 11 -10 47 -12 80 -3 33 -9 64 -14 69 -5 6 -9 24 -9
40 0 17 -3 42 -7 56 l-7 25 -8 -25 c-5 -16 -5 -10 -2 18 6 41 0 48 -30 43 -5
-1 -6 12 -3 29 5 22 2 35 -12 49 -11 11 -22 33 -26 50 -5 22 -12 31 -26 31
-14 0 -19 7 -19 25 0 23 -25 68 -57 102 -7 8 -29 35 -50 61 -21 26 -44 53 -50
60 -7 7 -13 16 -13 20 0 14 104 -97 153 -162z m2100 149 c-3 -9 -8 -14 -10
-11 -3 3 -2 9 2 15 9 16 15 13 8 -4z m-676 -37 c-3 -8 -6 -5 -6 6 -1 11 2 17
5 13 3 -3 4 -12 1 -19z m2783 -70 l0 -52 -22 21 c-19 19 -20 25 -8 52 19 46
30 38 30 -21z m-4395 -33 c197 -100 215 -126 294 -440 17 -66 37 -154 46 -195
9 -41 20 -93 26 -115 13 -59 29 -201 29 -268 0 -53 -6 -69 -67 -180 -85 -157
-105 -192 -170 -306 -30 -51 -80 -142 -111 -202 -31 -60 -63 -109 -69 -109
-10 0 -8 -11 5 -42 24 -60 21 -167 -7 -238 -12 -30 -58 -128 -104 -218 -71
-141 -86 -164 -109 -169 -15 -3 -29 -11 -32 -19 -9 -23 -39 -16 -69 16 -22 23
-32 48 -44 112 -8 46 -25 128 -38 183 -14 55 -34 140 -45 190 -30 129 -60 208
-156 404 l-86 174 56 221 c30 122 68 278 83 349 15 70 33 127 39 127 6 0 19
-19 29 -42 10 -24 43 -94 73 -157 30 -63 65 -144 79 -179 13 -36 40 -99 60
-141 19 -42 54 -119 78 -171 24 -52 54 -120 68 -150 14 -30 42 -94 62 -142 21
-48 40 -86 44 -83 4 2 13 28 21 58 17 71 8 380 -13 452 -27 92 -60 170 -93
223 -19 29 -34 55 -34 58 0 8 -113 166 -178 249 -93 119 -145 242 -146 340 -1
54 4 69 49 148 83 145 248 307 313 307 15 0 67 -20 117 -45z m1645 30 c0 -8
-2 -15 -4 -15 -2 0 -6 7 -10 15 -3 8 -1 15 4 15 6 0 10 -7 10 -15z m2883 -77
c5 -75 -4 -85 -41 -45 l-22 24 26 47 c14 26 27 46 29 44 1 -2 5 -33 8 -70z
m-2106 30 c-3 -7 -5 -2 -5 12 0 14 2 19 5 13 2 -7 2 -19 0 -25z m-23 -75 c-3
-21 -10 -42 -15 -47 -5 -6 -9 -19 -10 -30 0 -13 -3 -16 -6 -7 -5 12 26 121 35
121 1 0 0 -17 -4 -37z m-685 -83 c0 -23 -1 -23 -9 -5 -5 11 -9 31 -9 45 0 23
1 23 9 5 5 -11 9 -31 9 -45z m1399 -11 c3 -23 -6 -32 -65 -68 -146 -90 -190
-118 -232 -149 -46 -33 -65 -35 -39 -5 12 15 83 135 127 213 5 9 24 16 47 17
21 1 59 6 84 11 63 13 75 11 78 -19z m-561 -31 c-24 -101 -31 -176 -31 -368
-1 -233 15 -380 41 -380 21 0 27 -27 13 -60 -6 -16 -13 -43 -14 -60 -3 -45
-26 -55 -54 -25 -13 14 -29 25 -36 25 -31 0 -29 63 2 86 11 8 13 25 8 80 -26
287 -12 638 28 699 21 32 50 34 43 3z m-117 3 c0 -6 -4 -13 -10 -16 -5 -3 -10
1 -10 9 0 9 5 16 10 16 6 0 10 -4 10 -9z m813 -129 c28 -17 44 -52 33 -71 -4
-5 -21 -13 -39 -16 -86 -19 -166 -84 -195 -160 -7 -16 -36 -111 -66 -210 -30
-99 -69 -225 -86 -280 -18 -55 -39 -122 -46 -149 -17 -60 -16 -59 -45 -47 -13
5 -63 19 -111 32 l-87 23 -12 46 c-16 58 -15 62 31 122 56 74 68 126 74 328 3
97 9 186 14 199 4 13 38 42 75 65 130 81 292 186 316 205 l24 19 46 -45 c25
-24 59 -52 74 -61z m-846 66 c-3 -8 -6 -5 -6 6 -1 11 2 17 5 13 3 -3 4 -12 1
-19z m-637 -14 c0 -8 -4 -12 -10 -9 -5 3 -10 13 -10 21 0 8 5 12 10 9 6 -3 10
-13 10 -21z m-252 -73 c31 -86 34 -135 46 -613 8 -371 14 -500 24 -510 16 -16
15 -48 -3 -72 -8 -11 -15 -30 -15 -43 0 -18 -6 -23 -25 -23 -20 0 -27 6 -31
29 -4 20 -14 31 -30 35 -31 8 -32 41 -1 57 12 7 25 17 29 23 4 6 8 193 8 416
0 430 -10 557 -49 675 -11 32 -18 62 -15 67 9 14 53 -15 62 -41z m872 28 c0
-20 -41 -107 -66 -139 -15 -20 -32 -112 -44 -245 -16 -167 -27 -258 -55 -421
-34 -204 -51 -236 -212 -404 -70 -72 -129 -127 -131 -121 -5 15 17 44 95 126
103 107 174 195 187 230 9 25 42 193 51 260 4 28 13 82 20 120 8 39 17 113 21
165 9 136 41 288 66 318 20 25 48 90 48 112 0 11 5 20 10 20 6 0 10 -10 10
-21z m-73 -31 c-3 -7 -5 -2 -5 12 0 14 2 19 5 13 2 -7 2 -19 0 -25z m-577 -18
c0 -5 -2 -10 -4 -10 -3 0 -8 5 -11 10 -3 6 -1 10 4 10 6 0 11 -4 11 -10z m67
-32 c-3 -8 -6 -5 -6 6 -1 11 2 17 5 13 3 -3 4 -12 1 -19z m-1458 -33 c0 -5 -4
-3 -9 5 -5 8 -9 22 -9 30 0 16 17 -16 18 -35z m1421 -13 c0 -10 6 -42 14 -73
17 -62 34 -235 46 -459 5 -85 15 -209 21 -275 26 -247 12 -396 -42 -454 -31
-33 -34 -19 -7 26 50 81 58 196 28 418 -6 39 -12 142 -15 230 -8 256 -20 376
-55 533 -13 54 -13 72 0 72 6 0 10 -8 10 -18z m60 -14 c0 -22 50 -76 94 -102
47 -27 119 -36 183 -22 17 4 34 3 37 -2 15 -25 -80 -226 -198 -417 -20 -32
-42 -74 -48 -92 -12 -34 -26 -42 -33 -20 -2 6 -9 105 -15 219 -6 114 -19 256
-30 315 -24 130 -24 133 -5 133 8 0 15 -5 15 -12z m-2360 -102 c0 -26 -6 -18
-14 19 -5 22 -4 26 4 15 5 -8 10 -24 10 -34z m5086 -33 c-10 -10 -19 5 -10 18
6 11 8 11 12 0 2 -7 1 -15 -2 -18z m-5119 -55 c-3 -8 -6 -5 -6 6 -1 11 2 17 5
13 3 -3 4 -12 1 -19z m2770 -80 c-3 -7 -5 -2 -5 12 0 14 2 19 5 13 2 -7 2 -19
0 -25z m2108 -23 c-17 -13 -36 -24 -44 -25 -17 0 -15 2 29 33 44 30 54 24 15
-8z m-4634 -58 c-10 -9 -11 -8 -5 6 3 10 9 15 12 12 3 -3 0 -11 -7 -18z m4225
-24 c35 -27 63 -53 64 -58 0 -6 -20 -17 -46 -24 -25 -7 -52 -20 -60 -28 -16
-17 -17 -16 -18 62 -1 33 -5 68 -10 78 -13 27 2 21 70 -30z m-4307 1 c2 -10 8
-22 14 -26 6 -4 8 -10 4 -15 -9 -9 -46 35 -47 55 0 20 24 8 29 -14z m2580 -98
c-21 -44 -112 -192 -137 -221 -18 -22 -47 -69 -44 -73 2 -2 -7 -16 -20 -30
-12 -15 -34 -48 -48 -74 -22 -43 -40 -61 -40 -40 1 23 14 52 25 52 7 0 15 8
18 18 7 22 39 74 53 87 13 12 100 145 127 195 10 19 29 53 42 75 12 22 26 54
30 70 6 24 9 26 13 11 2 -10 -7 -42 -19 -70z m-2444 33 c6 -17 9 -18 16 -8 9
16 8 18 41 -48 14 -29 28 -49 32 -46 3 4 6 -1 6 -10 0 -9 -4 -19 -10 -22 -5
-3 -10 -16 -9 -28 1 -21 1 -21 8 2 11 39 30 38 27 -1 -2 -18 -1 -25 1 -15 14
54 40 -17 46 -123 3 -47 2 -76 0 -66 -3 10 -16 30 -29 43 -13 13 -24 33 -24
43 0 11 -10 39 -22 62 -13 24 -24 54 -25 68 -5 70 -37 135 -55 108 -5 -9 -8
-3 -8 15 0 15 -4 27 -10 27 -5 0 -10 5 -10 10 0 18 19 10 25 -11z m-111 -15
c3 -8 2 -12 -4 -9 -6 3 -10 10 -10 16 0 14 7 11 14 -7z m136 -54 c0 -5 -5 -10
-11 -10 -5 0 -7 5 -4 10 3 6 8 10 11 10 2 0 4 -4 4 -10z m-80 -49 c0 -11 5
-23 10 -26 6 -3 10 -15 10 -25 0 -10 14 -43 30 -72 42 -72 60 -113 66 -151 4
-30 3 -29 -18 13 -13 25 -38 81 -56 125 -19 44 -40 95 -48 113 -17 39 -17 42
-4 42 6 0 10 -9 10 -19z m747 -116 c-8 -115 -57 -206 -169 -320 -48 -49 -88
-85 -88 -79 0 6 9 22 20 35 32 39 34 42 52 82 10 20 23 37 29 37 8 0 8 -5 -1
-15 -7 -9 -11 -18 -8 -20 3 -3 17 13 32 35 14 22 30 40 35 40 11 0 56 95 66
139 5 23 4 31 -4 27 -6 -4 -12 -22 -12 -39 -1 -19 -3 -24 -6 -14 -8 30 7 87
21 87 8 0 16 17 20 40 11 67 19 45 13 -35z m-504 -55 c5 -14 11 -34 13 -45 1
-11 7 -38 13 -60 21 -83 23 -95 18 -110 -13 -32 -32 -4 -33 49 -1 30 -6 69
-12 88 -12 37 -25 142 -15 118 3 -8 10 -26 16 -40z m-121 -52 c-7 -7 -12 -8
-12 -2 0 14 12 26 19 19 2 -3 -1 -11 -7 -17z m551 -7 c-5 -3 -15 -15 -21 -26
-8 -14 -11 -16 -12 -5 0 23 33 67 38 51 2 -7 0 -16 -5 -20z m2624 -47 c-3 -3
-12 -4 -19 -1 -8 3 -5 6 6 6 11 1 17 -2 13 -5z m-2680 -46 c-3 -8 -6 -5 -6 6
-1 11 2 17 5 13 3 -3 4 -12 1 -19z m-447 -44 c13 -38 31 -47 24 -11 -4 20 -4
20 4 2 5 -11 8 -31 6 -45 -1 -14 -3 -28 -3 -32 -2 -21 -21 -4 -32 30 -6 20
-17 43 -23 51 -9 12 -8 13 4 7 9 -4 8 -1 -2 7 -10 8 -18 22 -18 32 0 27 27 0
40 -41z m59 -154 l0 -35 -15 34 c-16 38 -11 78 6 51 6 -8 10 -31 9 -50z m61 5
c0 -19 -4 -35 -8 -35 -5 0 -8 10 -6 23 1 12 3 28 3 35 2 28 11 9 11 -23z m-13
-125 c5 -25 5 -25 -10 -4 -9 11 -18 45 -22 75 l-5 54 15 -50 c9 -27 18 -61 22
-75z m10 48 c-3 -7 -5 -2 -5 12 0 14 2 19 5 13 2 -7 2 -19 0 -25z m-654 -70
c28 -37 118 -224 149 -308 37 -103 78 -231 78 -245 0 -8 6 -34 14 -57 8 -24
17 -70 21 -104 l7 -61 -63 -31 -63 -32 -100 51 c-56 29 -108 57 -116 64 -8 7
-59 30 -112 51 -54 21 -98 43 -98 49 0 21 49 150 94 251 49 106 80 205 91 289
12 87 24 115 50 115 15 0 33 -12 48 -32z m2717 22 c0 -5 -5 -10 -11 -10 -5 0
-7 5 -4 10 3 6 8 10 11 10 2 0 4 -4 4 -10z m84 -706 c12 -5 13 -10 3 -27 -21
-38 -70 -87 -87 -87 -9 0 -20 -4 -25 -9 -11 -11 -132 -18 -141 -8 -7 6 74 20
97 16 33 -5 114 37 128 67 15 33 14 34 -10 34 -11 0 -17 5 -14 10 7 11 26 13
49 4z m-119 -60 c15 -6 15 -8 -1 -25 -13 -14 -21 -16 -36 -8 -19 10 -19 11 -1
24 22 17 18 16 38 9z m1529 -48 c-6 -16 -24 -23 -24 -8 0 10 22 33 27 28 2 -2
1 -11 -3 -20z m-4307 -22 c54 -19 110 -40 126 -46 15 -5 27 -14 27 -18 0 -5
-44 -31 -97 -60 -107 -56 -305 -123 -368 -124 -39 -1 -40 0 -43 37 -4 49 41
168 80 213 29 33 33 34 104 34 59 0 92 -7 171 -36z m2610 -31 c-47 -16 -65
-14 -52 6 3 6 27 11 53 10 l47 0 -48 -16z m1418 -433 c-10 -11 -31 -20 -47
-20 -15 0 -28 -4 -28 -10 0 -5 -11 -10 -25 -10 -32 0 -34 30 -2 31 12 0 38 6
57 13 54 21 66 20 45 -4z m-155 -40 c0 -6 -26 -9 -62 -8 l-63 1 55 7 c30 4 58
7 63 8 4 1 7 -2 7 -8z m-350 -30 c0 -5 -4 -10 -9 -10 -6 0 -13 5 -16 10 -3 6
1 10 9 10 9 0 16 -4 16 -10z m1640 -346 c0 -33 -18 -30 -26 4 -3 15 -8 36 -10
47 -5 18 -3 18 15 -4 12 -13 21 -34 21 -47z m-503 -191 c-3 -10 -5 -4 -5 12 0
17 2 24 5 18 2 -7 2 -21 0 -30z m-131 10 c7 -10 13 -29 13 -43 -1 -24 -1 -24
-9 3 -5 16 -14 35 -21 43 -6 8 -8 14 -4 14 4 0 14 -8 21 -17z m-111 -63 c3 -5
1 -10 -4 -10 -6 0 -11 5 -11 10 0 6 2 10 4 10 3 0 8 -4 11 -10z m1056 -41 c11
-11 19 -25 17 -30 -2 -6 -16 4 -33 21 -32 33 -17 42 16 9z m-1086 -49 c3 -5 2
-10 -4 -10 -5 0 -16 -7 -25 -15 -8 -8 -17 -11 -20 -6 -7 10 20 41 34 41 5 0
12 -4 15 -10z m-208 -22 c-3 -8 -6 -5 -6 6 -1 11 2 17 5 13 3 -3 4 -12 1 -19z
m101 -30 c-5 -14 -58 -20 -58 -7 0 12 42 29 53 22 4 -3 6 -10 5 -15z m62 -8
c0 -5 -4 -10 -10 -10 -5 0 -10 5 -10 10 0 6 5 10 10 10 6 0 10 -4 10 -10z
m-190 -30 c0 -5 -10 -10 -22 -10 -19 0 -20 2 -8 10 19 13 30 13 30 0z m-110
-40 c-19 -13 -30 -13 -30 0 0 6 10 10 23 10 18 0 19 -2 7 -10z m-57 -25 c-3
-9 -8 -14 -10 -11 -3 3 -2 9 2 15 9 16 15 13 8 -4z m-66 -21 c-3 -3 -12 -4
-19 -1 -8 3 -5 6 6 6 11 1 17 -2 13 -5z m2840 -46 c-3 -7 -5 -2 -5 12 0 14 2
19 5 13 2 -7 2 -19 0 -25z m-2897 2 c12 -8 11 -10 -7 -10 -13 0 -23 5 -23 10
0 13 11 13 30 0z m-680 -31 c61 -14 80 -33 74 -73 -5 -29 -5 -30 10 -12 21 26
28 17 34 -44 4 -43 2 -50 -13 -50 -13 0 -16 6 -13 25 3 14 1 25 -3 25 -5 0 -9
-8 -9 -18 0 -26 -38 -58 -85 -71 -78 -21 -76 -24 -69 97 3 59 7 113 10 120 4
14 6 14 64 1z m-102 -48 c14 -7 16 -21 14 -71 l-4 -62 -186 7 c-103 4 -190 9
-193 11 -4 2 -21 -3 -38 -12 -38 -19 -47 -14 -30 15 10 16 11 30 2 61 -10 38
-9 42 11 50 28 12 403 12 424 1z m952 -43 c0 -13 -23 -5 -28 10 -2 7 2 10 12
6 9 -3 16 -11 16 -16z m-1850 -3 c-7 -9 -15 -13 -17 -11 -7 7 7 26 19 26 6 0
6 -6 -2 -15z m3321 -22 l24 -27 -24 15 c-14 9 -27 21 -29 27 -6 19 3 14 29
-15z m64 -53 c3 -5 1 -10 -4 -10 -6 0 -11 5 -11 10 0 6 2 10 4 10 3 0 8 -4 11
-10z m-1892 -26 c42 -21 68 -45 61 -55 -6 -10 -84 39 -84 52 0 16 -29 9 -39
-8 -6 -10 -11 -13 -11 -7 0 12 20 34 32 34 5 0 23 -7 41 -16z m1932 6 c3 -5 2
-10 -4 -10 -5 0 -13 5 -16 10 -3 6 -2 10 4 10 5 0 13 -4 16 -10z m59 -29 c4
-5 -3 -7 -14 -4 -23 6 -26 13 -6 13 8 0 17 -4 20 -9z"/>
<path d="M1050 4305 c0 -3 24 -38 53 -78 66 -89 149 -224 208 -337 24 -47 47
-87 50 -90 4 -3 10 -15 14 -28 4 -13 9 -21 12 -18 19 19 -298 556 -328 556 -5
0 -9 -2 -9 -5z"/>
<path d="M1460 3477 c0 -20 4 -37 10 -37 5 0 7 14 3 33 -8 45 -13 47 -13 4z"/>
<path d="M1472 3370 c0 -14 2 -19 5 -12 2 6 2 18 0 25 -3 6 -5 1 -5 -13z"/>
<path d="M4448 4003 c6 -2 18 -2 25 0 6 3 1 5 -13 5 -14 0 -19 -2 -12 -5z"/>
<path d="M4276 3901 c-4 -7 -5 -15 -2 -18 9 -9 19 4 14 18 -4 11 -6 11 -12 0z"/>
<path d="M3127 353 c-12 -12 -7 -60 7 -72 10 -8 21 -8 40 -1 22 8 27 15 24 38
-2 19 -8 26 -20 24 -9 -1 -19 2 -23 8 -7 12 -19 13 -28 3z"/>
<path d="M3240 346 c-18 -23 -8 -61 17 -64 29 -4 48 30 33 58 -13 24 -33 26
-50 6z m30 -26 c0 -5 -4 -10 -10 -10 -5 0 -10 5 -10 10 0 6 5 10 10 10 6 0 10
-4 10 -10z"/>
<path d="M3326 353 c-13 -13 -6 -73 8 -73 8 0 16 6 19 13 4 10 7 10 18 0 22
-21 29 -15 29 23 0 30 -3 36 -19 31 -10 -2 -25 -1 -33 4 -8 5 -18 6 -22 2z"/>
<path d="M7623 7363 c-13 -2 -23 -11 -23 -19 0 -20 14 -18 35 6 10 11 16 19
14 19 -2 -1 -14 -4 -26 -6z"/>
<path d="M7700 7321 c0 -5 -10 -13 -22 -17 -13 -4 -35 -16 -49 -28 -75 -60
-87 -68 -249 -180 -52 -36 -112 -81 -134 -100 -21 -20 -43 -36 -48 -36 -15 0
-144 -92 -184 -131 -12 -12 -38 -31 -57 -43 -70 -43 -116 -76 -129 -93 -7 -10
-46 -40 -85 -66 -40 -27 -73 -53 -73 -58 0 -5 24 -24 53 -43 51 -32 142 -68
319 -126 99 -31 198 -70 212 -82 15 -12 128 -10 167 3 19 7 41 19 49 28 17 19
122 96 195 144 l50 32 3 403 c1 266 -1 402 -8 402 -5 0 -10 -4 -10 -9z"/>
<path d="M6480 6670 c0 -5 5 -10 10 -10 6 0 10 5 10 10 0 6 -4 10 -10 10 -5 0
-10 -4 -10 -10z"/>
<path d="M6560 6591 c0 -24 18 -37 32 -23 8 8 7 16 -2 27 -17 21 -30 19 -30
-4z"/>
<path d="M6742 6015 c0 -16 2 -22 5 -12 2 9 2 23 0 30 -3 6 -5 -1 -5 -18z"/>
<path d="M7545 5464 l-30 -25 33 17 c17 10 32 22 32 26 0 12 -2 11 -35 -18z"/>
<path d="M7315 4810 c-22 -10 -45 -19 -51 -20 -6 0 -31 -17 -54 -37 -55 -49
-99 -145 -163 -356 -20 -67 -20 -68 0 -86 20 -19 103 -40 183 -46 25 -2 72 -9
105 -15 33 -6 75 -14 93 -17 20 -4 32 -2 32 6 0 15 50 14 143 -4 131 -25 117
-57 117 265 0 217 -3 280 -12 280 -12 1 -62 7 -193 25 -66 9 -99 13 -130 19
-20 4 -44 -1 -70 -14z m145 -110 c0 -5 -7 -10 -15 -10 -8 0 -15 5 -15 10 0 6
7 10 15 10 8 0 15 -4 15 -10z m-150 -360 c0 -5 -5 -10 -11 -10 -5 0 -7 5 -4
10 3 6 8 10 11 10 2 0 4 -4 4 -10z m147 -36 c-3 -3 -12 -4 -19 -1 -8 3 -5 6 6
6 11 1 17 -2 13 -5z"/>
<path d="M6839 4480 c-13 -10 -20 -19 -16 -20 4 0 17 9 29 20 28 26 17 26 -13
0z"/>
<path d="M6695 4385 c-16 -13 -25 -24 -18 -25 7 0 25 11 40 25 36 32 17 32
-22 0z"/>
<path d="M7105 4250 c4 -6 10 -8 15 -5 5 3 19 1 30 -5 11 -6 20 -7 20 -1 0 11
-24 21 -51 21 -11 0 -17 -5 -14 -10z"/>
<path d="M7194 4238 c-5 -8 -2 -9 9 -5 10 3 17 2 17 -3 0 -6 21 -10 48 -10
l47 1 -40 14 c-49 18 -72 19 -81 3z"/>
<path d="M7480 4233 c0 -9 108 -31 200 -41 75 -7 36 10 -52 24 -46 7 -98 16
-115 20 -19 4 -33 2 -33 -3z"/>
<path d="M7433 4193 c9 -2 25 -2 35 0 9 3 1 5 -18 5 -19 0 -27 -2 -17 -5z"/>
<path d="M7568 4173 c7 -3 16 -2 19 1 4 3 -2 6 -13 5 -11 0 -14 -3 -6 -6z"/>
<path d="M7620 4162 c23 -14 89 -22 95 -11 4 5 -2 9 -12 9 -10 0 -36 3 -58 6
-27 3 -35 2 -25 -4z"/>
<path d="M6927 4023 c10 -27 73 -108 73 -94 0 14 -55 97 -70 106 -6 4 -7 -1
-3 -12z"/>
<path d="M6301 3564 c0 -11 3 -14 6 -6 3 7 2 16 -1 19 -3 4 -6 -2 -5 -13z"/>
<path d="M6310 3465 c0 -8 4 -15 10 -15 5 0 7 7 4 15 -4 8 -8 15 -10 15 -2 0
-4 -7 -4 -15z"/>
<path d="M6342 3420 c7 -10 14 -18 15 -16 6 6 -9 36 -18 36 -5 0 -4 -9 3 -20z"/>
<path d="M5420 3381 c0 -12 5 -21 10 -21 6 0 10 6 10 14 0 8 -4 18 -10 21 -5
3 -10 -3 -10 -14z"/>
<path d="M5620 3390 c0 -5 5 -10 10 -10 6 0 10 5 10 10 0 6 -4 10 -10 10 -5 0
-10 -4 -10 -10z"/>
<path d="M6470 3229 c0 -7 14 -34 30 -59 17 -25 38 -57 48 -72 9 -16 21 -28
25 -28 7 0 1 13 -28 59 -56 87 -75 113 -75 100z"/>
<path d="M6596 3037 c3 -10 9 -15 12 -12 3 3 0 11 -7 18 -10 9 -11 8 -5 -6z"/>
<path d="M6637 2982 c44 -81 309 -320 330 -299 2 3 -6 12 -19 21 -96 67 -150
112 -184 151 -21 25 -63 71 -92 103 -43 46 -50 50 -35 24z"/>
<path d="M6312 2980 c7 -10 14 -18 15 -16 6 6 -9 36 -18 36 -5 0 -4 -9 3 -20z"/>
<path d="M5400 2966 c0 -2 7 -23 15 -46 8 -23 15 -44 15 -46 0 -2 -7 -1 -15 2
-19 8 -19 3 2 -41 19 -40 38 -47 31 -10 -5 26 6 35 15 13 3 -8 6 -5 6 5 1 11
-5 31 -13 45 -7 15 -19 39 -26 55 -11 22 -30 37 -30 23z"/>
<path d="M5207 2954 c-10 -11 3 -24 24 -24 10 0 19 7 19 15 0 15 -31 21 -43 9z"/>
<path d="M6350 2921 c0 -5 7 -15 17 -22 15 -13 15 -12 4 9 -12 23 -21 28 -21
13z"/>
<path d="M5138 2906 c-26 -19 -22 -27 7 -14 14 6 25 15 25 20 0 12 -12 9 -32
-6z"/>
<path d="M4584 2867 c3 -10 6 -34 6 -53 0 -19 5 -34 10 -34 12 0 3 66 -12 90
-8 12 -8 11 -4 -3z"/>
<path d="M4930 2786 c0 -9 7 -16 16 -16 9 0 14 5 12 12 -6 18 -28 21 -28 4z"/>
<path d="M5320 2756 c0 -7 9 -16 19 -19 17 -4 18 -2 8 14 -14 22 -27 25 -27 5z"/>
<path d="M5830 2722 c0 -5 -25 -47 -55 -93 -51 -77 -55 -88 -54 -139 l1 -55
10 45 c11 54 24 83 58 130 14 19 30 44 36 54 6 11 15 21 21 23 12 4 63 -42 63
-56 0 -5 13 -24 30 -42 16 -19 30 -38 30 -44 0 -25 244 -295 266 -295 19 0 -8
37 -74 101 -71 68 -171 191 -201 247 -14 27 -112 132 -123 132 -4 0 -8 -4 -8
-8z"/>
<path d="M6700 2698 c0 -7 5 -20 10 -28 8 -12 10 -11 10 7 0 12 -4 25 -10 28
-5 3 -10 0 -10 -7z"/>
<path d="M6720 2627 c0 -7 7 -21 15 -31 14 -19 15 -19 15 6 0 14 -7 28 -15 32
-8 3 -15 0 -15 -7z"/>
<path d="M6796 2585 c10 -8 26 -14 34 -14 9 0 4 6 -10 14 -33 19 -49 19 -24 0z"/>
<path d="M4348 2573 c7 -3 16 -2 19 1 4 3 -2 6 -13 5 -11 0 -14 -3 -6 -6z"/>
<path d="M6550 2569 c0 -16 32 -81 37 -75 7 7 -19 86 -29 86 -4 0 -8 -5 -8
-11z"/>
<path d="M5448 2527 c-27 -41 -28 -68 -3 -47 14 12 40 78 33 85 -2 2 -15 -15
-30 -38z"/>
<path d="M6762 2545 c6 -13 15 -22 19 -19 11 7 1 31 -16 38 -11 4 -12 0 -3
-19z"/>
<path d="M6870 2540 c0 -5 16 -20 35 -32 19 -13 61 -60 91 -106 31 -46 59 -81
61 -78 8 7 -66 126 -101 164 -34 37 -86 68 -86 52z"/>
<path d="M5380 2490 c0 -5 5 -10 10 -10 6 0 10 5 10 10 0 6 -4 10 -10 10 -5 0
-10 -4 -10 -10z"/>
<path d="M6318 2484 c-8 -7 22 -103 55 -179 23 -52 26 -56 26 -30 1 17 -6 41
-14 55 -8 14 -17 32 -20 40 -4 8 -13 29 -20 46 -9 22 -10 35 -3 42 6 6 7 15 4
21 -8 12 -19 14 -28 5z"/>
<path d="M6806 2455 c7 -33 24 -58 24 -34 -1 7 -7 25 -15 39 l-15 25 6 -30z"/>
<path d="M6360 2466 c0 -6 87 -133 120 -176 33 -43 38 -55 63 -171 8 -36 22
-79 30 -95 20 -36 21 -18 3 38 -7 24 -19 72 -27 108 -16 82 -35 118 -110 210
-20 25 -42 55 -48 68 -10 19 -31 31 -31 18z"/>
<path d="M5531 2444 c0 -11 3 -14 6 -6 3 7 2 16 -1 19 -3 4 -6 -2 -5 -13z"/>
<path d="M3896 2442 c-3 -5 1 -15 9 -22 33 -27 8 -71 -32 -56 -12 5 -14 9 -5
18 14 14 16 58 3 58 -11 0 -22 -55 -15 -75 10 -24 39 -35 112 -42 37 -3 80
-13 97 -21 40 -20 147 -26 207 -11 74 17 55 33 -50 40 -50 4 -96 10 -102 14
-6 4 -10 21 -8 38 3 31 2 32 -47 39 -27 5 -68 10 -90 12 -22 2 -47 7 -56 11
-10 3 -20 2 -23 -3z m95 -32 c10 -6 19 -20 19 -31 0 -17 -5 -20 -32 -17 -28 2
-34 8 -36 31 -4 30 13 36 49 17z"/>
<path d="M4240 2431 c-14 -4 -40 -11 -57 -15 -52 -13 -39 -23 40 -31 39 -4 79
-8 87 -10 8 -1 39 -6 68 -10 29 -4 55 -12 58 -16 7 -12 115 -11 134 1 17 11
16 11 -92 16 -72 2 -158 36 -158 61 0 14 -37 16 -80 4z"/>
<path d="M6644 2378 c19 -35 38 -80 41 -101 4 -20 12 -40 17 -43 14 -9 2 40
-25 107 -30 73 -46 99 -58 99 -5 0 6 -28 25 -62z"/>
<path d="M3763 2387 c-24 -17 -41 -33 -38 -35 5 -5 82 46 91 60 10 16 -11 6
-53 -25z"/>
<path d="M4606 2373 c-17 -17 1 -23 72 -22 76 1 76 2 27 10 -27 4 -59 10 -71
13 -12 3 -24 3 -28 -1z"/>
<path d="M5551 2364 c0 -11 3 -14 6 -6 3 7 2 16 -1 19 -3 4 -6 -2 -5 -13z"/>
<path d="M6841 2365 c0 -11 6 -33 14 -50 13 -29 13 -29 14 -5 0 14 -6 36 -14
50 -13 22 -14 23 -14 5z"/>
<path d="M3665 2304 c-22 -19 -31 -30 -20 -25 29 15 82 61 70 61 -5 0 -28 -16
-50 -36z"/>
<path d="M4872 2329 c2 -7 10 -15 17 -17 8 -3 12 1 9 9 -2 7 -10 15 -17 17 -8
3 -12 -1 -9 -9z"/>
<path d="M4353 2323 c9 -2 23 -2 30 0 6 3 -1 5 -18 5 -16 0 -22 -2 -12 -5z"/>
<path d="M4970 2309 c-10 -13 -23 -19 -37 -16 -25 5 -28 0 -14 -22 7 -11 15
-9 42 10 19 13 36 25 38 27 3 1 0 7 -5 12 -6 6 -15 3 -24 -11z"/>
<path d="M5551 2304 c0 -11 3 -14 6 -6 3 7 2 16 -1 19 -3 4 -6 -2 -5 -13z"/>
<path d="M5691 2274 c0 -11 3 -14 6 -6 3 7 2 16 -1 19 -3 4 -6 -2 -5 -13z"/>
<path d="M7150 2270 c0 -5 7 -10 15 -10 8 0 15 5 15 10 0 6 -7 10 -15 10 -8 0
-15 -4 -15 -10z"/>
<path d="M5597 2263 c-4 -3 -7 -11 -7 -17 0 -6 5 -5 12 2 6 6 9 14 7 17 -3 3
-9 2 -12 -2z"/>
<path d="M3585 2240 c-16 -17 -16 -20 -3 -15 9 4 19 13 22 21 7 19 2 18 -19
-6z"/>
<path d="M5040 2219 c0 -5 5 -7 10 -4 6 3 10 8 10 11 0 2 -4 4 -10 4 -5 0 -10
-5 -10 -11z"/>
<path d="M6712 2195 c0 -16 2 -22 5 -12 2 9 2 23 0 30 -3 6 -5 -1 -5 -18z"/>
<path d="M5565 2200 c-3 -5 -1 -10 4 -10 6 0 11 5 11 10 0 6 -2 10 -4 10 -3 0
-8 -4 -11 -10z"/>
<path d="M6223 2165 c0 -22 2 -30 4 -17 2 12 2 30 0 40 -3 9 -5 -1 -4 -23z"/>
<path d="M4832 2173 c-6 -2 -10 -9 -6 -14 8 -14 31 -11 38 6 5 15 -7 18 -32 8z"/>
<path d="M6721 2137 c-1 -27 38 -217 51 -250 10 -25 12 -27 21 -12 9 16 5 28
-23 86 -5 9 -12 37 -15 63 -9 57 -33 138 -34 113z"/>
<path d="M6871 2134 c0 -11 3 -14 6 -6 3 7 2 16 -1 19 -3 4 -6 -2 -5 -13z"/>
<path d="M4865 2117 c-4 -10 -5 -21 -1 -24 10 -10 18 4 13 24 -4 17 -4 17 -12
0z"/>
<path d="M6215 2096 c-3 -14 -7 -37 -10 -51 -3 -14 -12 -25 -20 -25 -8 0 -15
-4 -15 -10 0 -13 6 -13 41 5 27 15 29 18 23 58 -8 52 -12 56 -19 23z"/>
<path d="M6366 2042 c-3 -6 -1 -14 5 -17 15 -10 25 3 12 16 -7 7 -13 7 -17 1z"/>
<path d="M6449 1983 c18 -17 42 -44 52 -60 10 -15 19 -22 19 -14 0 20 -41 79
-60 85 -8 4 -22 9 -30 13 -8 3 0 -8 19 -24z"/>
<path d="M6118 1965 c-10 -13 -18 -27 -18 -30 0 -10 50 38 50 48 0 14 -15 6
-32 -18z"/>
<path d="M7666 1892 c-2 -4 -1 -14 5 -22 6 -10 9 -11 9 -2 0 6 7 12 16 12 8 0
12 5 9 10 -7 12 -32 13 -39 2z"/>
<path d="M6630 1869 c7 -11 14 -19 16 -16 7 7 -7 37 -17 37 -6 0 -5 -9 1 -21z"/>
<path d="M6840 1875 c7 -8 16 -12 21 -9 13 8 1 24 -18 24 -13 0 -13 -3 -3 -15z"/>
<path d="M6700 1871 c0 -6 5 -13 10 -16 6 -3 10 1 10 9 0 9 -4 16 -10 16 -5 0
-10 -4 -10 -9z"/>
<path d="M7556 1862 c-9 -15 23 -52 40 -45 18 7 43 -24 44 -54 0 -27 17 -39
22 -16 5 24 -11 52 -51 91 -35 33 -46 38 -55 24z"/>
<path d="M6780 1840 c0 -5 5 -10 11 -10 5 0 7 5 4 10 -3 6 -8 10 -11 10 -2 0
-4 -4 -4 -10z"/>
<path d="M4348 1835 c-10 -10 -330 -52 -352 -46 -17 4 -56 -9 -56 -19 0 -9
272 -5 325 5 64 13 126 37 122 48 -4 13 -30 21 -39 12z"/>
<path d="M6072 1828 c-15 -15 -16 -44 -2 -53 17 -11 11 -76 -10 -102 -11 -14
-20 -37 -20 -51 0 -25 1 -25 15 -6 12 15 14 16 15 3 1 -47 138 -139 208 -139
21 0 24 -2 12 -10 -10 -6 -2 -8 25 -3 49 7 133 50 146 75 12 23 -7 24 -32 2
-13 -12 -22 -13 -36 -5 -10 6 -12 11 -5 11 6 0 12 9 12 20 0 13 19 32 60 57
43 28 59 44 60 61 0 12 -2 22 -5 22 -3 0 -23 -18 -46 -41 -22 -22 -46 -38 -52
-36 -28 9 -22 107 6 107 6 0 8 2 5 5 -3 3 -22 -2 -44 -11 -59 -25 -162 -15
-213 20 -21 15 -44 26 -51 24 -7 -2 -18 12 -24 30 -9 26 -14 30 -24 20z m92
-142 c-30 -10 -31 -9 -39 32 l-6 33 36 -28 35 -28 -26 -9z m206 -4 c0 -5 -26
-7 -57 -5 -84 6 -88 11 -10 12 37 1 67 -3 67 -7z m-236 -48 c9 -3 16 -12 16
-19 0 -7 11 -20 25 -29 14 -9 25 -21 25 -27 0 -23 -89 50 -90 74 0 9 4 9 24 1z
m236 -4 c0 -5 -5 -10 -11 -10 -5 0 -7 5 -4 10 3 6 8 10 11 10 2 0 4 -4 4 -10z
m-10 -80 c0 -5 -7 -6 -17 -3 -11 4 -14 3 -9 -5 4 -7 2 -12 -3 -12 -6 0 -11 4
-11 10 0 6 -9 6 -26 0 -36 -14 -77 -13 -72 3 3 7 29 14 64 17 63 6 74 4 74
-10z"/>
<path d="M6480 1822 c0 -10 -5 -23 -12 -30 -7 -7 -8 -12 -4 -12 12 0 45 44 39
52 -8 15 -23 8 -23 -10z"/>
<path d="M6705 1830 c-9 -15 4 -30 26 -30 17 0 18 3 9 20 -12 22 -25 26 -35
10z"/>
<path d="M7679 1824 c-11 -14 -10 -16 9 -12 13 1 23 7 23 13 1 17 -17 16 -32
-1z"/>
<path d="M7445 1819 c-4 -6 -5 -12 -2 -15 7 -7 37 7 37 17 0 13 -27 11 -35 -2z"/>
<path d="M6530 1795 c0 -8 6 -15 14 -15 8 0 23 -15 35 -32 11 -18 21 -28 21
-23 0 15 -49 85 -60 85 -6 0 -10 -7 -10 -15z"/>
<path d="M7551 1775 c-19 -6 -29 -15 -24 -18 12 -7 73 14 73 25 0 10 -6 9 -49
-7z"/>
<path d="M7328 1773 c-20 -5 -25 -33 -5 -33 6 0 19 5 27 10 19 12 2 28 -22 23z"/>
<path d="M7680 1770 c0 -5 6 -10 14 -10 8 0 18 5 21 10 3 6 -3 10 -14 10 -12
0 -21 -4 -21 -10z"/>
<path d="M7476 1752 c-3 -6 -1 -14 5 -17 15 -10 25 3 12 16 -7 7 -13 7 -17 1z"/>
<path d="M6003 1713 c-18 -33 -20 -46 -13 -96 14 -101 86 -167 218 -198 89
-22 145 -18 241 14 61 21 118 64 142 108 17 32 -9 22 -42 -16 -37 -42 -124
-84 -181 -88 -50 -4 -155 16 -171 32 -6 6 -23 11 -37 11 -14 0 -36 9 -48 20
-12 11 -26 20 -33 20 -6 0 -9 7 -6 15 4 8 2 17 -3 20 -6 4 -10 1 -10 -4 0 -25
-18 -8 -39 38 -25 52 -23 94 6 138 9 13 11 23 6 23 -5 0 -19 -17 -30 -37z"/>
<path d="M7587 1744 c-13 -13 -7 -24 14 -24 11 0 19 5 17 12 -5 14 -22 21 -31
12z"/>
<path d="M7195 1730 c-10 -17 14 -38 35 -33 23 6 25 14 8 31 -15 15 -35 15
-43 2z"/>
<path d="M7447 1733 c-4 -3 -7 -11 -7 -17 0 -6 5 -5 12 2 6 6 9 14 7 17 -3 3
-9 2 -12 -2z"/>
<path d="M7540 1719 c0 -11 5 -17 10 -14 6 3 10 13 10 21 0 8 -4 14 -10 14 -5
0 -10 -9 -10 -21z"/>
<path d="M7395 1720 c-8 -13 9 -20 24 -11 10 6 9 10 -3 14 -8 3 -18 2 -21 -3z"/>
<path d="M7472 1701 c-10 -6 -7 -10 13 -15 30 -8 41 -3 30 13 -7 13 -25 14
-43 2z"/>
<path d="M7100 1685 c-10 -12 -10 -18 0 -30 14 -17 35 -21 24 -4 -3 6 -1 15 6
19 7 4 9 13 6 19 -10 15 -21 14 -36 -4z"/>
<path d="M7345 1690 c-3 -5 1 -10 9 -10 9 0 16 5 16 10 0 6 -4 10 -9 10 -6 0
-13 -4 -16 -10z"/>
<path d="M7406 1675 c-8 -22 10 -26 27 -7 15 16 15 18 -3 19 -10 1 -21 -5 -24
-12z"/>
<path d="M7278 1674 c-8 -7 14 -64 24 -64 13 0 9 30 -4 30 -7 1 -2 10 11 20
l23 20 -24 0 c-14 0 -27 -3 -30 -6z"/>
<path d="M7215 1650 c-9 -10 -24 -16 -32 -13 -10 4 -14 2 -12 -6 5 -14 7 -14
49 0 30 11 38 23 21 33 -4 3 -16 -3 -26 -14z"/>
<path d="M6997 1653 c-16 -16 -6 -30 18 -25 20 3 23 7 14 18 -13 15 -22 17
-32 7z"/>
<path d="M7340 1650 c-12 -8 -11 -10 8 -10 12 0 22 5 22 10 0 13 -11 13 -30 0z"/>
<path d="M6491 1599 c-7 -12 -10 -23 -8 -26 3 -3 11 5 17 17 15 28 8 35 -9 9z"/>
<path d="M6874 1605 c-4 -9 0 -24 10 -33 15 -15 16 -15 16 6 0 16 4 20 16 15
12 -4 15 -2 12 8 -7 21 -47 24 -54 4z"/>
<path d="M7213 1603 c-13 -2 -23 -11 -23 -20 0 -12 3 -13 15 -3 8 6 23 9 35 5
14 -5 20 -2 20 9 0 16 -6 17 -47 9z"/>
<path d="M7075 1589 c-12 -19 3 -22 27 -5 l22 16 -21 0 c-12 0 -25 -5 -28 -11z"/>
<path d="M7660 1580 c-6 -11 -9 -29 -7 -38 4 -13 5 -13 6 4 0 11 6 25 13 32 6
6 9 14 6 18 -4 3 -12 -4 -18 -16z"/>
<path d="M7010 1575 c-6 -7 -22 -15 -35 -17 -20 -2 -22 -6 -14 -18 8 -11 12
-12 16 -2 2 6 15 12 28 12 12 0 25 7 28 15 8 20 -8 28 -23 10z"/>
<path d="M7103 1567 c-18 -6 -35 -17 -37 -24 -6 -15 20 -18 29 -3 3 6 22 10
40 10 26 0 33 3 29 15 -7 17 -15 17 -61 2z"/>
<path d="M6760 1556 c0 -8 5 -18 10 -21 6 -3 10 -1 10 6 0 7 8 9 21 6 13 -3
19 -1 16 6 -6 19 -57 21 -57 3z"/>
<path d="M6890 1524 l-25 -14 29 2 c16 2 31 9 34 16 5 16 -7 15 -38 -4z"/>
<path d="M7015 1530 c-3 -5 1 -10 9 -10 9 0 16 5 16 10 0 6 -4 10 -9 10 -6 0
-13 -4 -16 -10z"/>
<path d="M6960 1505 c0 -9 -8 -14 -21 -12 -12 1 -24 -4 -26 -10 -8 -22 30 -14
62 12 28 24 29 25 8 25 -14 0 -23 -6 -23 -15z"/>
<path d="M6843 1480 c12 -31 21 -37 31 -21 3 5 -1 11 -9 15 -8 3 -12 12 -9 21
4 9 1 15 -9 15 -13 0 -13 -5 -4 -30z"/>
<path d="M6801 1464 c-1 -21 5 -34 15 -38 20 -8 33 2 17 12 -7 4 -16 19 -22
32 -10 25 -10 24 -10 -6z"/>
<path d="M7627 1484 c-13 -13 5 -24 36 -24 l32 0 -29 15 c-33 17 -31 17 -39 9z"/>
<path d="M6218 1473 c7 -3 16 -2 19 1 4 3 -2 6 -13 5 -11 0 -14 -3 -6 -6z"/>
<path d="M7635 1430 c3 -5 8 -10 11 -10 2 0 4 5 4 10 0 6 -5 10 -11 10 -5 0
-7 -4 -4 -10z"/>
<path d="M7615 1351 c-21 -47 -16 -57 44 -93 20 -12 41 -29 48 -38 10 -12 12
-9 13 21 0 35 -2 37 -42 45 -52 11 -60 33 -24 69 14 14 21 25 16 25 -4 0 -15
2 -22 5 -10 4 -21 -8 -33 -34z"/>
<path d="M5662 1161 c-19 -12 -11 -45 12 -49 25 -5 37 9 30 36 -7 23 -20 27
-42 13z"/>
<path d="M5276 1025 c-6 -17 9 -65 21 -64 5 0 16 3 25 7 15 6 15 11 3 40 -15
34 -39 42 -49 17z"/>
<path d="M6810 980 c0 -11 7 -20 15 -20 8 0 15 9 15 20 0 11 -7 20 -15 20 -8
0 -15 -9 -15 -20z"/>
<path d="M5764 957 c-7 -20 3 -37 22 -37 18 0 18 24 -1 40 -12 10 -16 9 -21
-3z"/>
<path d="M6777 944 c-4 -4 -7 -14 -7 -23 0 -11 3 -12 11 -4 6 6 10 16 7 23 -2
6 -7 8 -11 4z"/>
<path d="M6077 913 c-12 -11 -8 -22 14 -33 26 -15 34 -7 19 19 -11 22 -22 26
-33 14z"/>
<path d="M6693 831 c-74 -76 -75 -97 -2 -25 46 45 76 83 67 87 -2 1 -31 -27
-65 -62z"/>
<path d="M6195 880 c-3 -5 -1 -10 4 -10 6 0 11 5 11 10 0 6 -2 10 -4 10 -3 0
-8 -4 -11 -10z"/>
<path d="M7590 856 c0 -9 7 -16 16 -16 9 0 14 5 12 12 -6 18 -28 21 -28 4z"/>
<path d="M7705 837 c-4 -10 -5 -21 -1 -24 10 -10 18 4 13 24 -4 17 -4 17 -12
0z"/>
<path d="M5310 830 c0 -5 -7 -10 -15 -10 -8 0 -15 -4 -15 -10 0 -13 3 -13 35
2 28 12 33 28 10 28 -8 0 -15 -4 -15 -10z"/>
<path d="M7524 796 c-8 -22 3 -33 18 -18 9 9 9 15 0 24 -9 9 -13 7 -18 -6z"/>
<path d="M5255 790 c-3 -5 -1 -10 4 -10 6 0 11 5 11 10 0 6 -2 10 -4 10 -3 0
-8 -4 -11 -10z"/>
<path d="M7620 785 c0 -10 82 -95 91 -95 18 0 7 26 -26 63 -30 32 -65 49 -65
32z"/>
<path d="M7470 740 c0 -5 5 -10 10 -10 6 0 10 5 10 10 0 6 -4 10 -10 10 -5 0
-10 -4 -10 -10z"/>
<path d="M7382 663 c2 -10 10 -18 18 -18 22 0 18 29 -3 33 -14 3 -18 -1 -15
-15z"/>
<path d="M7340 593 c0 -15 54 -74 81 -88 51 -27 33 4 -39 68 -32 27 -42 32
-42 20z"/>
<path d="M7673 550 c-17 -10 -37 -28 -43 -39 -5 -11 -32 -28 -59 -37 -33 -12
-56 -29 -72 -52 -29 -43 -122 -126 -169 -150 -19 -10 -52 -43 -73 -73 -32 -47
-37 -60 -33 -97 3 -39 1 -44 -21 -53 -42 -16 -66 -10 -94 24 l-28 32 -1 -25
c0 -15 -5 -31 -11 -37 -21 -21 2 -33 64 -33 107 0 257 13 257 22 0 4 -11 8
-23 8 -13 0 -31 8 -40 18 -13 14 -14 21 -3 47 8 17 21 39 31 49 10 9 19 29 21
44 1 15 8 28 14 30 6 2 26 20 43 39 94 103 153 153 181 153 10 0 27 5 39 12
12 7 32 11 45 9 21 -2 22 1 22 63 0 36 -3 66 -7 66 -5 0 -22 -9 -40 -20z"/>
<path d="M6635 550 c-3 -5 1 -10 9 -10 9 0 16 5 16 10 0 6 -4 10 -9 10 -6 0
-13 -4 -16 -10z"/>
<path d="M6680 500 c0 -12 -7 -20 -16 -20 -9 0 -14 -7 -12 -17 4 -22 28 -29
28 -9 0 19 5 20 30 6 12 -6 21 -7 25 -1 3 6 -4 15 -15 21 -11 6 -20 17 -20 25
0 8 -4 15 -10 15 -5 0 -10 -9 -10 -20z"/>
<path d="M7305 430 c-3 -5 -1 -10 4 -10 6 0 11 5 11 10 0 6 -2 10 -4 10 -3 0
-8 -4 -11 -10z"/>
<path d="M6720 279 c0 -5 5 -7 10 -4 6 3 10 8 10 11 0 2 -4 4 -10 4 -5 0 -10
-5 -10 -11z"/>
<path d="M5863 265 c-7 -19 5 -112 17 -134 16 -31 112 -104 146 -111 61 -14
74 -5 74 55 0 58 -6 65 -84 105 -27 13 -67 41 -90 62 -44 42 -54 45 -63 23z"/>
<path d="M6568 178 c-33 -12 -38 -32 -5 -22 31 9 66 34 47 33 -8 0 -27 -5 -42
-11z"/>
<path d="M6630 140 c-13 -8 -12 -10 3 -10 9 0 17 5 17 10 0 12 -1 12 -20 0z"/>
<path d="M6568 114 c-28 -14 -38 -34 -18 -34 6 0 10 -13 10 -30 0 -33 10 -36
51 -17 27 12 99 72 99 82 0 3 -15 5 -33 5 -24 0 -35 -6 -42 -22 -6 -13 -21
-24 -35 -26 l-25 -4 23 24 c33 36 17 48 -30 22z"/>
<path d="M5836 44 c-9 -22 -9 -22 56 -26 58 -3 84 14 31 20 -15 2 -32 8 -37
13 -16 14 -43 10 -50 -7z"/>
<path d="M6122 48 c-22 -22 -12 -29 36 -26 45 3 60 22 17 24 -11 0 -25 3 -31
7 -6 3 -16 1 -22 -5z"/>
<path d="M6724 36 c-8 -22 3 -33 18 -18 9 9 9 15 0 24 -9 9 -13 7 -18 -6z"/>
</g>
</svg>
